<?xml version="1.0" encoding="utf-8"?>
<!-- Generator: Adobe Illustrator 24.1.2, SVG Export Plug-In . SVG Version: 6.00 Build 0)  -->
<svg version="1.1" id="Layer_1" xmlns="http://www.w3.org/2000/svg" xmlns:xlink="http://www.w3.org/1999/xlink" x="0px" y="0px"
	 viewBox="0 0 206.91 202" style="enable-background:new 0 0 206.91 202;" xml:space="preserve">
<style type="text/css">
	.st0{fill-rule:evenodd;clip-rule:evenodd;fill:#91282E;}
	.st1{fill-rule:evenodd;clip-rule:evenodd;fill:#FFFFFF;}
</style>
<g>
	<g>
		<polygon class="st0" points="77.45,92.3 71.65,92.3 71.65,86.5 65.85,86.5 65.85,80.7 60.05,80.7 60.05,86.5 54.25,86.5 
			54.25,92.3 48.45,92.3 48.45,98.1 42.65,98.1 42.65,98.1 42.65,103.9 42.65,103.9 48.45,103.9 48.45,109.7 54.25,109.7 
			54.25,115.5 60.05,115.5 60.05,121.3 65.85,121.3 65.85,115.5 71.65,115.5 71.65,109.7 77.45,109.7 77.45,103.9 83.25,103.9 
			83.25,103.9 83.25,98.1 83.25,98.1 77.45,98.1 		"/>
		<polygon class="st0" points="36.85,51.7 31.05,51.7 31.05,45.9 25.25,45.9 25.25,40.1 25.24,40.1 19.45,40.1 19.45,40.1 
			19.45,45.9 13.65,45.9 13.65,51.7 7.85,51.7 7.85,57.5 2.05,57.5 2.05,63.3 7.85,63.3 7.85,69.1 13.65,69.1 13.65,74.9 
			19.45,74.9 19.45,80.7 19.45,80.7 25.24,80.7 25.25,80.7 25.25,74.9 31.05,74.9 31.05,69.1 36.85,69.1 36.85,63.3 42.65,63.3 
			42.65,57.5 36.85,57.5 		"/>
		<polygon class="st0" points="118.06,57.5 118.06,51.7 112.26,51.7 112.26,45.9 106.46,45.9 106.46,40.1 106.46,40.1 100.66,40.1 
			100.66,40.1 100.66,45.9 94.86,45.9 94.86,51.7 89.06,51.7 89.06,57.5 83.26,57.5 83.26,57.5 77.46,57.5 77.46,51.7 71.66,51.7 
			71.66,45.9 65.86,45.9 65.86,40.1 65.85,40.1 65.85,34.3 71.65,34.3 71.65,28.51 77.45,28.51 77.45,22.71 83.25,22.71 83.25,22.7 
			83.25,16.91 83.25,16.9 77.45,16.9 77.45,11.1 71.65,11.1 71.65,5.3 65.85,5.3 65.85,-0.5 60.05,-0.5 60.05,5.3 54.25,5.3 
			54.25,11.1 48.45,11.1 48.45,16.9 42.65,16.9 42.65,16.91 42.65,22.7 42.65,22.71 48.45,22.71 48.45,28.51 54.25,28.51 
			54.25,34.3 60.05,34.3 60.05,40.1 60.05,40.1 60.05,45.9 54.25,45.9 54.25,51.7 48.45,51.7 48.45,57.5 42.65,57.5 42.65,63.3 
			48.45,63.3 48.45,69.1 54.25,69.1 54.25,74.9 60.05,74.9 60.05,80.7 60.06,80.7 65.85,80.7 65.86,80.7 65.86,74.9 71.66,74.9 
			71.66,69.1 77.46,69.1 77.46,63.3 83.26,63.3 83.26,63.3 89.06,63.3 89.06,69.1 94.86,69.1 94.86,74.9 100.66,74.9 100.66,80.7 
			100.66,80.7 106.46,80.7 106.46,80.7 106.46,74.9 112.26,74.9 112.26,69.1 118.06,69.1 118.06,63.3 123.86,63.3 123.86,57.5 		"/>
	</g>
	<g>
		<polygon class="st0" points="158.45,92.3 152.65,92.3 152.65,86.5 146.85,86.5 146.85,80.7 141.05,80.7 141.05,86.5 135.26,86.5 
			135.26,92.3 129.46,92.3 129.46,98.1 123.66,98.1 123.66,98.1 123.66,103.9 123.66,103.9 129.46,103.9 129.46,109.7 135.26,109.7 
			135.26,115.5 141.05,115.5 141.05,121.3 146.85,121.3 146.85,115.5 152.65,115.5 152.65,109.7 158.45,109.7 158.45,103.9 
			164.25,103.9 164.25,103.9 164.25,98.1 164.25,98.1 158.45,98.1 		"/>
		<polygon class="st0" points="117.85,51.7 112.05,51.7 112.05,45.9 106.25,45.9 106.25,40.1 106.25,40.1 100.45,40.1 100.45,40.1 
			100.45,45.9 94.65,45.9 94.65,51.7 88.85,51.7 88.85,57.5 83.05,57.5 83.05,63.3 88.85,63.3 88.85,69.1 94.65,69.1 94.65,74.9 
			100.45,74.9 100.45,80.7 100.45,80.7 106.25,80.7 106.25,80.7 106.25,74.9 112.05,74.9 112.05,69.1 117.85,69.1 117.85,63.3 
			123.65,63.3 123.65,57.5 117.85,57.5 		"/>
		<polygon class="st0" points="199.06,57.5 199.06,51.7 193.26,51.7 193.26,45.9 187.46,45.9 187.46,40.1 187.46,40.1 181.66,40.1 
			181.66,40.1 181.66,45.9 175.86,45.9 175.86,51.7 170.06,51.7 170.06,57.5 164.26,57.5 164.26,57.5 158.46,57.5 158.46,51.7 
			152.66,51.7 152.66,45.9 146.86,45.9 146.86,40.1 146.85,40.1 146.85,34.3 152.65,34.3 152.65,28.51 158.45,28.51 158.45,22.71 
			164.25,22.71 164.25,22.7 164.25,16.91 164.25,16.9 158.45,16.9 158.45,11.1 152.65,11.1 152.65,5.3 146.85,5.3 146.85,-0.5 
			141.05,-0.5 141.05,5.3 135.25,5.3 135.25,11.1 129.46,11.1 129.46,16.9 123.66,16.9 123.66,16.91 123.66,22.7 123.66,22.71 
			129.46,22.71 129.46,28.51 135.25,28.51 135.25,34.3 141.05,34.3 141.05,40.1 141.05,40.1 141.05,45.9 135.25,45.9 135.25,51.7 
			129.45,51.7 129.45,57.5 123.65,57.5 123.65,63.3 129.45,63.3 129.45,69.1 135.25,69.1 135.25,74.9 141.05,74.9 141.05,80.7 
			141.06,80.7 146.85,80.7 146.86,80.7 146.86,74.9 152.66,74.9 152.66,69.1 158.46,69.1 158.46,63.3 164.26,63.3 164.26,63.3 
			170.06,63.3 170.06,69.1 175.86,69.1 175.86,74.9 181.66,74.9 181.66,80.7 181.66,80.7 187.46,80.7 187.46,80.7 187.46,74.9 
			193.26,74.9 193.26,69.1 199.06,69.1 199.06,63.3 204.86,63.3 204.86,57.5 		"/>
	</g>
	<g>
		<polygon class="st0" points="77.45,173.5 71.65,173.5 71.65,167.7 65.85,167.7 65.85,161.9 60.05,161.9 60.05,167.7 54.25,167.7 
			54.25,173.5 48.45,173.5 48.45,179.29 42.65,179.29 42.65,179.3 42.65,185.09 42.65,185.1 48.45,185.1 48.45,190.9 54.25,190.9 
			54.25,196.7 60.05,196.7 60.05,202.5 65.85,202.5 65.85,196.7 71.65,196.7 71.65,190.9 77.45,190.9 77.45,185.1 83.25,185.1 
			83.25,185.09 83.25,179.3 83.25,179.29 77.45,179.29 		"/>
		<polygon class="st0" points="36.85,132.89 31.05,132.89 31.05,127.09 25.25,127.09 25.25,121.3 25.24,121.3 19.45,121.3 
			19.45,121.3 19.45,127.09 13.65,127.09 13.65,132.89 7.85,132.89 7.85,138.69 2.05,138.69 2.05,144.49 7.85,144.49 7.85,150.29 
			13.65,150.29 13.65,156.09 19.45,156.09 19.45,161.89 19.45,161.89 25.24,161.89 25.25,161.89 25.25,156.09 31.05,156.09 
			31.05,150.29 36.85,150.29 36.85,144.49 42.65,144.49 42.65,138.69 36.85,138.69 		"/>
		<polygon class="st0" points="118.06,138.69 118.06,132.89 112.26,132.89 112.26,127.1 106.46,127.1 106.46,121.3 106.46,121.3 
			100.66,121.3 100.66,121.3 100.66,127.1 94.86,127.1 94.86,132.89 89.06,132.89 89.06,138.69 83.26,138.69 83.26,138.69 
			77.46,138.69 77.46,132.89 71.66,132.89 71.66,127.09 65.86,127.09 65.86,121.3 65.85,121.3 65.85,115.5 71.65,115.5 71.65,109.7 
			77.45,109.7 77.45,103.9 83.25,103.9 83.25,103.9 83.25,98.1 83.25,98.1 77.45,98.1 77.45,92.3 71.65,92.3 71.65,86.5 65.85,86.5 
			65.85,80.7 60.05,80.7 60.05,86.5 54.25,86.5 54.25,92.3 48.45,92.3 48.45,98.1 42.65,98.1 42.65,98.1 42.65,103.9 42.65,103.9 
			48.45,103.9 48.45,109.7 54.25,109.7 54.25,115.5 60.05,115.5 60.05,121.3 60.05,121.3 60.05,127.09 54.25,127.09 54.25,132.89 
			48.45,132.89 48.45,138.69 42.65,138.69 42.65,144.49 48.45,144.49 48.45,150.29 54.25,150.29 54.25,156.09 60.05,156.09 
			60.05,161.89 60.06,161.89 65.85,161.89 65.86,161.89 65.86,156.09 71.66,156.09 71.66,150.29 77.46,150.29 77.46,144.49 
			83.26,144.49 83.26,144.49 89.06,144.49 89.06,150.29 94.86,150.29 94.86,156.09 100.66,156.09 100.66,161.89 100.66,161.89 
			106.46,161.89 106.46,161.89 106.46,156.09 112.26,156.09 112.26,150.29 118.06,150.29 118.06,144.49 123.86,144.49 
			123.86,138.69 		"/>
	</g>
	<g>
		<polygon class="st0" points="158.45,173.5 152.65,173.5 152.65,167.7 146.85,167.7 146.85,161.9 141.05,161.9 141.05,167.7 
			135.26,167.7 135.26,173.5 129.46,173.5 129.46,179.29 123.66,179.29 123.66,179.3 123.66,185.09 123.66,185.1 129.46,185.1 
			129.46,190.9 135.26,190.9 135.26,196.7 141.05,196.7 141.05,202.5 146.85,202.5 146.85,196.7 152.65,196.7 152.65,190.9 
			158.45,190.9 158.45,185.1 164.25,185.1 164.25,185.09 164.25,179.3 164.25,179.29 158.45,179.29 		"/>
		<polygon class="st0" points="117.85,132.89 112.05,132.89 112.05,127.09 106.25,127.09 106.25,121.3 106.25,121.3 100.45,121.3 
			100.45,121.3 100.45,127.09 94.65,127.09 94.65,132.89 88.85,132.89 88.85,138.69 83.05,138.69 83.05,144.49 88.85,144.49 
			88.85,150.29 94.65,150.29 94.65,156.09 100.45,156.09 100.45,161.89 100.45,161.89 106.25,161.89 106.25,161.89 106.25,156.09 
			112.05,156.09 112.05,150.29 117.85,150.29 117.85,144.49 123.65,144.49 123.65,138.69 117.85,138.69 		"/>
		<polygon class="st0" points="199.06,138.69 199.06,132.89 193.26,132.89 193.26,127.1 187.46,127.1 187.46,121.3 187.46,121.3 
			181.66,121.3 181.66,121.3 181.66,127.1 175.86,127.1 175.86,132.89 170.06,132.89 170.06,138.69 164.26,138.69 164.26,138.69 
			158.46,138.69 158.46,132.89 152.66,132.89 152.66,127.09 146.86,127.09 146.86,121.3 146.85,121.3 146.85,115.5 152.65,115.5 
			152.65,109.7 158.45,109.7 158.45,103.9 164.25,103.9 164.25,103.9 164.25,98.1 164.25,98.1 158.45,98.1 158.45,92.3 152.65,92.3 
			152.65,86.5 146.85,86.5 146.85,80.7 141.05,80.7 141.05,86.5 135.25,86.5 135.25,92.3 129.46,92.3 129.46,98.1 123.66,98.1 
			123.66,98.1 123.66,103.9 123.66,103.9 129.46,103.9 129.46,109.7 135.25,109.7 135.25,115.5 141.05,115.5 141.05,121.3 
			141.05,121.3 141.05,127.09 135.25,127.09 135.25,132.89 129.45,132.89 129.45,138.69 123.65,138.69 123.65,144.49 129.45,144.49 
			129.45,150.29 135.25,150.29 135.25,156.09 141.05,156.09 141.05,161.89 141.06,161.89 146.85,161.89 146.86,161.89 
			146.86,156.09 152.66,156.09 152.66,150.29 158.46,150.29 158.46,144.49 164.26,144.49 164.26,144.49 170.06,144.49 
			170.06,150.29 175.86,150.29 175.86,156.09 181.66,156.09 181.66,161.89 181.66,161.89 187.46,161.89 187.46,161.89 
			187.46,156.09 193.26,156.09 193.26,150.29 199.06,150.29 199.06,144.49 204.86,144.49 204.86,138.69 		"/>
	</g>
	
		<rect x="59.99" y="56.26" transform="matrix(0.7071 -0.7071 0.7071 0.7071 -23.5757 62.1906)" class="st1" width="6.58" height="6.58"/>
	<path class="st1" d="M148.57,59.59l-4.59,4.59c-0.02,0.02-0.05,0.02-0.07,0l-4.59-4.59c-0.02-0.02-0.02-0.05,0-0.07l4.59-4.59
		c0.02-0.02,0.05-0.02,0.07,0l4.59,4.59C148.59,59.54,148.59,59.57,148.57,59.59z"/>
	<path class="st1" d="M148.57,142.91l-4.59,4.59c-0.02,0.02-0.05,0.02-0.07,0l-4.59-4.59c-0.02-0.02-0.02-0.05,0-0.07l4.59-4.59
		c0.02-0.02,0.05-0.02,0.07,0l4.59,4.59C148.59,142.86,148.59,142.89,148.57,142.91z"/>
	<path class="st1" d="M67.57,142.91l-4.59,4.59c-0.02,0.02-0.05,0.02-0.07,0l-4.59-4.59c-0.02-0.02-0.02-0.05,0-0.07l4.59-4.59
		c0.02-0.02,0.05-0.02,0.07,0l4.59,4.59C67.59,142.86,67.59,142.89,67.57,142.91z"/>
</g>
</svg>
